<mxfile host="app.diagrams.net" modified="2023-11-19T17:11:10.896Z" agent="Mozilla/5.0 (Windows NT 10.0; Win64; x64) AppleWebKit/537.36 (KHTML, like Gecko) Chrome/118.0.0.0 Safari/537.36" etag="dUx1j95mTH9EDDa9dzgh" version="22.1.3" type="github">
  <diagram id="R2lEEEUBdFMjLlhIrx00" name="Page-1">
    <mxGraphModel dx="1050" dy="542" grid="1" gridSize="10" guides="1" tooltips="1" connect="1" arrows="1" fold="1" page="1" pageScale="1" pageWidth="850" pageHeight="1100" math="0" shadow="0" extFonts="Permanent Marker^https://fonts.googleapis.com/css?family=Permanent+Marker">
      <root>
        <mxCell id="0" />
        <mxCell id="1" parent="0" />
        <mxCell id="ETQsR8EFnwbttZ_quNTG-14" value="факт выручки" style="swimlane;childLayout=stackLayout;horizontal=1;startSize=50;horizontalStack=0;rounded=1;fontSize=14;fontStyle=0;strokeWidth=2;resizeParent=0;resizeLast=1;shadow=0;dashed=0;align=center;arcSize=4;whiteSpace=wrap;html=1;" parent="1" vertex="1">
          <mxGeometry x="70" y="450" width="160" height="150" as="geometry" />
        </mxCell>
        <mxCell id="ETQsR8EFnwbttZ_quNTG-15" value="+Код продукта&amp;nbsp; uid&lt;br&gt;+Код месяца&amp;nbsp; &amp;nbsp;uid&lt;br&gt;+Выручка&amp;nbsp; &amp;nbsp;numeric&lt;br&gt;+Отказы numeric" style="align=left;strokeColor=none;fillColor=none;spacingLeft=4;fontSize=12;verticalAlign=top;resizable=0;rotatable=0;part=1;html=1;" parent="ETQsR8EFnwbttZ_quNTG-14" vertex="1">
          <mxGeometry y="50" width="160" height="100" as="geometry" />
        </mxCell>
        <mxCell id="ETQsR8EFnwbttZ_quNTG-18" value="Продукт" style="swimlane;childLayout=stackLayout;horizontal=1;startSize=50;horizontalStack=0;rounded=1;fontSize=14;fontStyle=0;strokeWidth=2;resizeParent=0;resizeLast=1;shadow=0;dashed=0;align=center;arcSize=4;whiteSpace=wrap;html=1;" parent="1" vertex="1">
          <mxGeometry x="310" y="320" width="240" height="120" as="geometry" />
        </mxCell>
        <mxCell id="ETQsR8EFnwbttZ_quNTG-19" value="+Код продукта&amp;nbsp; &amp;nbsp;uid&lt;br&gt;+Код категории продукта&amp;nbsp; uid&lt;br&gt;+Название&amp;nbsp; &amp;nbsp;text&lt;br&gt;+Себестоимость&amp;nbsp; numeric" style="align=left;strokeColor=none;fillColor=none;spacingLeft=4;fontSize=12;verticalAlign=top;resizable=0;rotatable=0;part=1;html=1;" parent="ETQsR8EFnwbttZ_quNTG-18" vertex="1">
          <mxGeometry y="50" width="240" height="70" as="geometry" />
        </mxCell>
        <mxCell id="ETQsR8EFnwbttZ_quNTG-20" value="Месяц" style="swimlane;childLayout=stackLayout;horizontal=1;startSize=50;horizontalStack=0;rounded=1;fontSize=14;fontStyle=0;strokeWidth=2;resizeParent=0;resizeLast=1;shadow=0;dashed=0;align=center;arcSize=4;whiteSpace=wrap;html=1;" parent="1" vertex="1">
          <mxGeometry x="370" y="550" width="180" height="120" as="geometry" />
        </mxCell>
        <mxCell id="ETQsR8EFnwbttZ_quNTG-21" value="+Код месяца&amp;nbsp; uid&lt;br&gt;+Месяц - номер&amp;nbsp; int&lt;br&gt;+Месяц - наименование&amp;nbsp; text&lt;br&gt;+Год&amp;nbsp; numeric" style="align=left;strokeColor=none;fillColor=none;spacingLeft=4;fontSize=12;verticalAlign=top;resizable=0;rotatable=0;part=1;html=1;" parent="ETQsR8EFnwbttZ_quNTG-20" vertex="1">
          <mxGeometry y="50" width="180" height="70" as="geometry" />
        </mxCell>
        <mxCell id="ETQsR8EFnwbttZ_quNTG-22" value="Категории продукта" style="swimlane;childLayout=stackLayout;horizontal=1;startSize=50;horizontalStack=0;rounded=1;fontSize=14;fontStyle=0;strokeWidth=2;resizeParent=0;resizeLast=1;shadow=0;dashed=0;align=center;arcSize=4;whiteSpace=wrap;html=1;" parent="1" vertex="1">
          <mxGeometry x="600" y="100" width="160" height="120" as="geometry" />
        </mxCell>
        <mxCell id="ETQsR8EFnwbttZ_quNTG-23" value="+Код категории&lt;br&gt;+Наименование&lt;br&gt;+Описание" style="align=left;strokeColor=none;fillColor=none;spacingLeft=4;fontSize=12;verticalAlign=top;resizable=0;rotatable=0;part=1;html=1;" parent="ETQsR8EFnwbttZ_quNTG-22" vertex="1">
          <mxGeometry y="50" width="160" height="70" as="geometry" />
        </mxCell>
        <mxCell id="ETQsR8EFnwbttZ_quNTG-25" value="" style="edgeStyle=entityRelationEdgeStyle;fontSize=12;html=1;endArrow=ERzeroToMany;startArrow=ERmandOne;rounded=0;entryX=1;entryY=0.357;entryDx=0;entryDy=0;entryPerimeter=0;exitX=0;exitY=0.5;exitDx=0;exitDy=0;" parent="1" source="ETQsR8EFnwbttZ_quNTG-18" target="ETQsR8EFnwbttZ_quNTG-15" edge="1">
          <mxGeometry width="100" height="100" relative="1" as="geometry">
            <mxPoint x="260" y="550" as="sourcePoint" />
            <mxPoint x="360" y="450" as="targetPoint" />
          </mxGeometry>
        </mxCell>
        <mxCell id="ETQsR8EFnwbttZ_quNTG-27" value="" style="edgeStyle=entityRelationEdgeStyle;fontSize=12;html=1;endArrow=ERzeroToMany;startArrow=ERmandOne;rounded=0;exitX=0.006;exitY=0.386;exitDx=0;exitDy=0;exitPerimeter=0;entryX=1.013;entryY=0.643;entryDx=0;entryDy=0;entryPerimeter=0;" parent="1" source="ETQsR8EFnwbttZ_quNTG-21" target="ETQsR8EFnwbttZ_quNTG-15" edge="1">
          <mxGeometry width="100" height="100" relative="1" as="geometry">
            <mxPoint x="150" y="750" as="sourcePoint" />
            <mxPoint x="250" y="650" as="targetPoint" />
          </mxGeometry>
        </mxCell>
        <mxCell id="ETQsR8EFnwbttZ_quNTG-31" value="" style="edgeStyle=entityRelationEdgeStyle;fontSize=12;html=1;endArrow=ERzeroToMany;endFill=1;startArrow=ERzeroToMany;rounded=0;entryX=0;entryY=0.75;entryDx=0;entryDy=0;exitX=1;exitY=0.333;exitDx=0;exitDy=0;exitPerimeter=0;" parent="1" source="ETQsR8EFnwbttZ_quNTG-18" target="ETQsR8EFnwbttZ_quNTG-22" edge="1">
          <mxGeometry width="100" height="100" relative="1" as="geometry">
            <mxPoint x="610" y="330" as="sourcePoint" />
            <mxPoint x="290" y="120" as="targetPoint" />
          </mxGeometry>
        </mxCell>
      </root>
    </mxGraphModel>
  </diagram>
</mxfile>
